<?xml version="1.0" encoding="utf-8"?>
<!-- Generator: Adobe Illustrator 26.0.2, SVG Export Plug-In . SVG Version: 6.00 Build 0)  -->
<svg version="1.1" id="Layer_1" xmlns="http://www.w3.org/2000/svg" xmlns:xlink="http://www.w3.org/1999/xlink" x="0px" y="0px"
	 viewBox="0 0 1019 531.9" style="enable-background:new 0 0 1019 531.9;" xml:space="preserve">
<style type="text/css">
	.st0{fill:none;stroke:#FFFFFF;stroke-width:6;stroke-linecap:round;stroke-linejoin:round;stroke-miterlimit:10;}
	.st1{fill:#FFFFFF;}
</style>
<g>
	<circle class="st0" cx="509.5" cy="183.1" r="151.2"/>
	<line class="st0" x1="509.5" y1="226.9" x2="509.5" y2="334.3"/>
	<line class="st0" x1="509.5" y1="32" x2="509.5" y2="63.8"/>
	<g>
		<polyline class="st0" points="509.5,226.9 406.5,145.4 509.5,63.8 612.5,145.4 566.5,181.8 		"/>
		<polyline class="st0" points="596.7,234 612.5,221.5 612.5,145.4 		"/>
		<polyline class="st0" points="406.5,145.4 406.5,221.5 509.5,303.1 556,266.3 		"/>
	</g>
	<g>
		<polyline class="st0" points="424.5,235.8 407,266.3 463,266.3 		"/>
		<polyline class="st0" points="509.5,266.3 612,266.3 509.5,88.7 455.9,181.5 		"/>
	</g>
</g>
<g>
	<path class="st1" d="M130.3,491.6c-1.1-2.4-2.2-5.2-3.6-8.4c-0.6-1.5-1.3-3.1-2-4.8c-0.8-1.8-1.6-3.7-2.4-5.6
		c-1.5-3.6-3.1-7.3-4.8-11.3c-1.4-3.3-2.8-6.7-4.3-10.1c-1.2-2.9-2.5-5.8-3.7-8.8c-2.8-6.4-5.5-12.7-8.1-18.9
		c-2.4-5.6-4.8-11.3-7.2-17c-1-2.4-1.9-4.7-2.8-6.8c-1-2.3-1.9-4.5-2.7-6.4c-1.2-3.1-2.2-5.3-2.9-6.8l-1.9-4.5L33.2,501.4H53
		l12.8-31h35.8c0.8,2,1.6,4,2.4,5.9l1.3,3.1c0.7,1.7,1.4,3.4,2.1,4.9c0.6,1.4,1.1,2.7,1.7,4c0.9,1.9,1.6,3.7,2.3,5.3l0.8,1.8
		c0.8,1.9,1.5,3.4,2,4.5v1.4h20.4l-1.5-3.6C132.3,496.5,131.4,494.4,130.3,491.6z M94.8,453.2H73l11-26.5c0.4,1.1,1,2.6,1.8,4.4
		c0.3,0.7,0.6,1.4,0.9,2.1c0.6,1.3,1.2,2.9,1.9,4.5c0.5,1.2,1,2.5,1.6,3.8c0.6,1.4,1.2,2.9,1.8,4.5
		C92.8,448.4,93.8,450.9,94.8,453.2z"/>
	<polygon class="st1" points="191.8,389.9 172,389.9 172,501.4 245.5,501.4 245.5,482.5 191.8,482.5 	"/>
	<path class="st1" d="M358,473.6l-1.7,2.3c-0.1,0.1-0.5,0.4-2.3,1.4c-1.3,0.7-3.1,1.4-5.6,2.3c-2.2,0.8-4.8,1.5-7.6,2
		c-2.7,0.6-5.5,0.9-8.5,0.9c-5.5,0-10.6-1.1-15.2-3.1c-4.7-2.2-8.7-5-11.9-8.4c-3.4-3.6-6-7.5-7.8-12c-1.9-4.6-2.8-9.2-2.8-14
		s1-9.4,3-14.2c1.9-4.6,4.6-8.6,8-12.1c3.3-3.4,7.4-6.2,12.1-8.2c4.8-2.1,9.8-3.1,15.3-3.1c1.6,0,3.3,0.1,5.1,0.3
		c1.8,0.2,3.7,0.5,5.5,0.9c2,0.4,3.7,0.9,5.2,1.4c1.7,0.6,3,1.2,4.1,2l1.6,1.1l0.9-1.6c0.4-0.8,0.8-1.5,1.2-2.1
		c0.5-0.8,0.9-1.5,1.2-2.2c0.2-0.3,0.4-0.7,0.5-1c0.4-0.7,0.7-1.3,1.1-1.9c0.2-0.3,0.4-0.6,0.5-0.9c0.3-0.5,0.6-1.1,0.9-1.6l0.3-0.5
		c0.4-0.7,0.9-1.5,1.5-2.3l0.8-1.2l-1.1-1c-1.3-1.1-3-2.2-5.1-3.2c-1.9-1-4.2-1.8-7.3-2.6c-2.5-0.7-5.2-1.2-8.6-1.6
		c-3.1-0.4-6.1-0.6-9-0.6c-7.9,0-15.4,1.5-22.4,4.3c-7.1,2.9-13.1,6.8-18.3,11.9c-5.2,5-9.4,11.2-12.4,18.3
		c-3,7.1-4.5,14.9-4.5,23.2c0,7.7,1.2,14.7,3.8,21.5c2.6,6.9,6.2,12.7,11.1,17.9c4.9,5.2,10.8,9.3,17.7,12.3c7,3,14.8,4.5,23.4,4.5
		c4.1,0,8-0.3,11.6-0.9c3.8-0.7,7.1-1.4,9.8-2.3c2.8-0.9,5.4-1.9,7.7-3c2.1-1,4-2.1,5.3-3.1l1.1-0.8l-7.2-16.1L358,473.6z"/>
	<path class="st1" d="M476,435.8h-50.7v-45.9h-19.6v111.5h19.6v-46.7H476v46.6h19.6v-37.7c0-5.8,0-11.9,0.1-18s0.1-12.2,0.1-18
		v-37.7H476V435.8z"/>
	<polygon class="st1" points="567.1,454.7 615.7,454.7 615.7,436.3 567.1,436.3 567.1,408.1 621.7,408.1 621.7,389.9 547.3,389.9 
		547.3,501.4 623.7,501.4 623.7,482.9 567.1,482.9 	"/>
	<path class="st1" d="M772,391.3c-2.2,3.1-4.3,6.1-6.6,9.2c-2.6,3.5-5.4,7.5-8.4,11.7s-6.1,8.6-9.1,12.8l-0.1,0.1
		c-1.4,1.9-2.7,3.8-4.1,5.6c-1.7,2.4-3.4,4.7-5.1,7.1c-3.2,4.3-5.7,7.9-8,11.1c-1.8,2.6-3.4,4.8-4.9,6.8l-1,1.4
		c-0.5,0.6-1,1.4-1.5,2c-1-1.4-2.3-3.2-4-5.5c-1.4-1.9-3-4.1-4.6-6.4c-1.5-2.1-3.2-4.4-5-6.9c-1.9-2.6-3.8-5.3-5.8-8.1
		c-1.9-2.7-3.9-5.5-6-8.3c-2.4-3.4-4.7-6.6-7-9.8c-1.7-2.3-3.3-4.5-4.8-6.7c-3.5-4.9-6.7-9.3-9.4-13.1l-0.4-0.5
		c-3-4.1-4.7-6.6-5.6-7.9l-0.5-0.8h-2.8v116.3H687v-60.5l2.5,3.5c1.2,1.7,2.6,3.6,4,5.7c1.1,1.5,2.2,3.1,3.3,4.7
		c1.6,2.3,3.3,4.7,5.1,7.2c2,2.9,4,5.6,5.9,8.3c0.9,1.3,1.8,2.6,2.8,3.9c2.8,3.7,5.2,7.1,7.2,9.9c1.8,2.6,3.4,4.6,4.1,5.7l1.5,1.9
		l1.3-2c0.7-1.1,2-3,3.9-5.7c1.2-1.8,2.5-3.7,4-5.8c0.8-1.2,1.7-2.4,2.6-3.7c1-1.4,1.9-2.8,2.9-4.2c1.6-2.3,3.2-4.7,5-7.2
		c2.2-3.1,4.3-6.1,6.3-9l2.9-4.1c2.1-3,4-5.7,5.6-8.1c0.2-0.3,0.5-0.7,0.7-1v60.6h20.7V382l-3,3.8
		C774.8,387.5,773.4,389.3,772,391.3z"/>
	<rect x="830.7" y="389.9" class="st1" width="19.6" height="111.5"/>
	<path class="st1" d="M950.1,445.2c0.3-0.5,0.7-1.1,1.1-1.7c0.5-0.8,1.1-1.7,1.7-2.7c0.7-1.1,1.4-2.2,2.2-3.4
		c1.2-1.9,2.5-3.9,3.9-6.1c2.2-3.3,4.3-6.9,6.6-10.6l0.8-1.3c1.4-2.3,2.8-4.5,4.2-6.7c1.1-1.8,2.2-3.5,3.2-5.1
		c2.3-3.7,4.3-6.9,6-9.6c0.6-1,1.2-1.9,1.7-2.7c0.8-1.2,1.3-2.1,1.7-2.7l1.8-2.7h-24.1l-0.5,0.8c-0.1,0.2-0.3,0.5-0.5,0.8
		c-0.5,0.8-1.2,1.9-2,3.2c-1.3,2-2.6,4.3-3.9,6.6c-1.4,2.5-2.9,5.1-4.5,7.8c-1.1,2-2.2,3.9-3.3,5.7c-0.4,0.7-0.8,1.4-1.2,2
		c-0.5,0.9-1,1.7-1.5,2.5c-0.9,1.5-1.7,2.8-2.4,4c-0.9,1.4-1.6,2.5-2,3.3l-0.5,0.7l-0.2,0.4c-0.1,0.3-0.3,0.7-0.7,1.3
		c-0.3-0.6-0.5-1.1-0.7-1.3l-0.2-0.4c-0.1-0.2-0.3-0.5-0.5-0.8c-0.5-0.8-1.2-1.8-2-3.2c-0.6-1-1.2-2-1.9-3.1s-1.3-2.2-2.1-3.3
		c-1.5-2.5-3.1-5.1-4.8-7.8c-1.7-2.8-3.3-5.4-4.8-7.8c-1.4-2.3-2.7-4.4-4-6.5c-0.9-1.4-1.5-2.4-2-3.2l-1-1.6h-24.1l34.9,54.5
		l-36.4,56.9h24.4l0.5-0.9c0.4-0.8,1.3-2.2,2.4-4c0.6-1,1.3-2.1,2-3.3l0.6-0.9c2.1-3.4,4.2-6.9,6.5-10.8c2.2-3.8,4.3-7.3,6.4-10.7
		l0.6-0.9c1.2-2,2.3-3.7,3-5c0.6-1,1-1.7,1.4-2.3c0.2-0.2,0.4-0.6,0.9-1.6c0.1,0.3,0.3,0.5,0.5,0.8c0.4,0.7,0.8,1.4,1.2,2.1
		c0.2,0.4,0.5,0.7,0.6,0.9c0.1,0.2,0.2,0.3,0.2,0.3l22.6,36.3h24.4L950.1,445.2z"/>
</g>
</svg>
