<?xml version="1.0" encoding="utf-8"?>
<!-- Generator: Adobe Illustrator 26.0.2, SVG Export Plug-In . SVG Version: 6.00 Build 0)  -->
<svg version="1.1" id="Layer_1" xmlns="http://www.w3.org/2000/svg" xmlns:xlink="http://www.w3.org/1999/xlink" x="0px" y="0px"
	 viewBox="0 0 1325 320" style="enable-background:new 0 0 1325 320;" xml:space="preserve">
<style type="text/css">
	.st0{fill:none;stroke:#FFFFFF;stroke-width:6;stroke-linecap:round;stroke-linejoin:round;stroke-miterlimit:10;}
	.st1{fill:#FFFFFF;}
</style>
<g>
	<circle class="st0" cx="160.7" cy="160" r="151.2"/>
	<line class="st0" x1="160.7" y1="203.7" x2="160.7" y2="311.2"/>
	<line class="st0" x1="160.7" y1="8.8" x2="160.7" y2="40.7"/>
	<g>
		<polyline class="st0" points="160.7,203.7 57.6,122.2 160.7,40.7 263.7,122.2 217.7,158.6 		"/>
		<polyline class="st0" points="247.9,210.9 263.7,198.4 263.7,122.2 		"/>
		<polyline class="st0" points="57.6,122.2 57.6,198.4 160.7,279.9 207.1,243.1 		"/>
	</g>
	<g>
		<polyline class="st0" points="75.7,212.7 58.1,243.1 114.2,243.1 		"/>
		<polyline class="st0" points="160.7,243.1 263.2,243.1 160.7,65.5 107.1,158.4 		"/>
	</g>
</g>
<g>
	<path class="st1" d="M459,204.6c-1.1-2.4-2.2-5.2-3.6-8.4c-0.6-1.5-1.3-3.1-2-4.8c-0.8-1.8-1.6-3.8-2.4-5.7
		c-1.5-3.5-3.1-7.3-4.8-11.3c-1.4-3.3-2.8-6.7-4.3-10c-1.2-2.9-2.5-5.8-3.7-8.8c-2.8-6.3-5.5-12.7-8.1-18.9
		c-2.4-5.6-4.8-11.3-7.2-17c-1-2.4-1.9-4.7-2.8-6.8c-1-2.3-1.9-4.5-2.7-6.4c-1.2-3.1-2.2-5.3-2.9-6.8l-1.9-4.5l-50.7,119.2h19.8
		l12.8-31h35.9c0.8,2.1,1.6,4.1,2.4,6l1.2,3c0.7,1.7,1.4,3.4,2.1,4.9c0.6,1.4,1.1,2.7,1.7,4c0.9,1.9,1.6,3.7,2.3,5.4l0.8,1.8
		c0.9,2.1,1.6,3.7,2.1,4.8l0.5,1l19.7,0.1l-1.6-3.6C461,209.5,460.1,207.4,459,204.6z M423.5,166.2h-21.9l11-26.5
		c0.4,1.1,1,2.6,1.8,4.4c0.3,0.7,0.6,1.4,0.9,2.1c0.6,1.3,1.2,2.8,1.9,4.5c0.5,1.2,1,2.5,1.6,3.8c0.6,1.4,1.2,2.9,1.8,4.5
		C421.5,161.4,422.5,163.9,423.5,166.2z"/>
	<polygon class="st1" points="520.5,102.9 500.7,102.9 500.7,214.4 574.2,214.4 574.2,195.5 520.5,195.5 	"/>
	<path class="st1" d="M686.7,186.6l-1.7,2.3c-0.1,0.1-0.5,0.4-2.3,1.4c-1.3,0.7-3.1,1.4-5.6,2.3c-2.2,0.8-4.8,1.5-7.6,2
		c-2.7,0.6-5.5,0.9-8.5,0.9c-5.5,0-10.6-1.1-15.2-3.1c-4.7-2.2-8.7-5-11.9-8.4c-3.4-3.6-6-7.5-7.8-12c-1.9-4.6-2.8-9.2-2.8-14
		s1-9.4,3-14.2c1.9-4.6,4.6-8.6,8-12.1c3.3-3.4,7.4-6.2,12.1-8.2c4.8-2.1,9.8-3.1,15.3-3.1c1.6,0,3.3,0.1,5.1,0.3
		c1.8,0.2,3.7,0.5,5.5,0.9c2,0.4,3.7,0.9,5.2,1.4c1.7,0.6,3,1.2,4.1,2l1.6,1.1l0.9-1.6c0.4-0.8,0.8-1.5,1.2-2.2
		c0.5-0.8,0.9-1.5,1.2-2.2c0.2-0.3,0.4-0.7,0.5-1c0.4-0.7,0.7-1.3,1.1-1.9c0.2-0.3,0.4-0.6,0.5-0.9c0.3-0.5,0.6-1.1,0.9-1.6l0.3-0.5
		c0.4-0.7,0.9-1.5,1.5-2.3l0.8-1.2l-1.1-1c-1.2-1.1-3-2.2-5.1-3.2c-1.9-0.9-4.3-1.8-7.3-2.6c-2.5-0.7-5.2-1.2-8.6-1.6
		c-3.1-0.4-6.1-0.6-9-0.6c-7.9,0-15.4,1.5-22.4,4.3c-7.1,2.9-13.1,6.8-18.3,11.9c-5.2,5-9.4,11.2-12.4,18.3s-4.5,14.9-4.5,23.2
		c0,7.7,1.2,14.7,3.8,21.5c2.6,6.9,6.2,12.7,11.1,17.9c4.9,5.2,10.8,9.3,17.7,12.3c7,3,14.8,4.5,23.4,4.5c4.1,0,8-0.3,11.6-0.9
		c3.8-0.7,7.1-1.4,9.8-2.3c2.8-0.9,5.4-1.9,7.7-3c2.1-1,4-2.1,5.3-3.1l1.1-0.8l-7.2-16.1L686.7,186.6z"/>
	<path class="st1" d="M804.8,148.8h-50.7v-45.9h-19.6v111.5h19.6v-46.7h50.7v46.6h19.6v-37.7c0-5.8,0-11.9,0.1-18s0.1-12.2,0.1-18
		v-37.7h-19.8L804.8,148.8L804.8,148.8z"/>
	<polygon class="st1" points="895.9,167.7 944.5,167.7 944.5,149.3 895.9,149.3 895.9,121.1 950.5,121.1 950.5,102.9 876.1,102.9 
		876.1,214.4 952.5,214.4 952.5,195.9 895.9,195.9 	"/>
	<path class="st1" d="M1100.8,104.3c-2.1,3.1-4.3,6.1-6.6,9.2c-2.6,3.5-5.4,7.4-8.4,11.7c-2.9,4.1-5.9,8.3-9.2,12.9
		c-1.4,1.9-2.7,3.8-4.1,5.6c-1.7,2.4-3.4,4.7-5.1,7.1c-3.2,4.3-5.8,7.9-8,11.1c-1.8,2.6-3.4,4.8-4.8,6.8l-1,1.4
		c-0.5,0.6-1,1.4-1.5,2c-1-1.4-2.3-3.2-4-5.5c-1.4-1.9-3-4.1-4.6-6.4c-1.5-2.1-3.2-4.4-5-6.9c-1.9-2.6-3.8-5.2-5.7-8
		c-2-2.7-4-5.5-6.1-8.4c-2.4-3.4-4.7-6.6-7-9.8c-1.6-2.3-3.2-4.5-4.8-6.7c-3.5-4.8-6.6-9.1-9.3-12.9l-0.5-0.7
		c-3-4.1-4.7-6.6-5.6-7.9l-3.1-4.9l-0.1,120.4h19.6v-60.5l2.3,3.3c1.3,1.8,2.6,3.7,4.2,5.9c1.1,1.5,2.2,3.1,3.3,4.6
		c1.6,2.3,3.3,4.7,5.1,7.2c2,2.9,4,5.6,5.9,8.3c0.9,1.3,1.8,2.6,2.7,3.8c2.8,3.8,5.2,7.1,7.2,9.9c1.8,2.6,3.3,4.6,4.1,5.7l1.5,1.9
		l1.3-2c0.7-1.1,2-3,3.9-5.7c1.2-1.8,2.6-3.7,4-5.8c0.8-1.2,1.7-2.4,2.6-3.7c1-1.4,1.9-2.8,2.9-4.2c1.6-2.3,3.3-4.7,5-7.2
		c2.2-3.1,4.3-6.2,6.3-9.1l2.7-3.8c2.1-3,4.1-5.8,5.7-8.3c0.2-0.3,0.5-0.7,0.7-1v60.6h20.6V95l-3,3.8
		C1103.5,100.5,1102.2,102.3,1100.8,104.3z"/>
	<rect x="1159.4" y="102.9" class="st1" width="19.6" height="111.5"/>
	<path class="st1" d="M1278.9,158.2c0.3-0.5,0.7-1,1.1-1.7c0.5-0.8,1.1-1.7,1.7-2.7c0.7-1.1,1.4-2.2,2.2-3.4
		c1.2-1.9,2.5-3.9,3.9-6.1c2.2-3.3,4.3-6.8,6.6-10.6l0.8-1.3c1.4-2.3,2.8-4.5,4.1-6.6c1.1-1.8,2.2-3.5,3.3-5.2
		c2.3-3.7,4.3-6.9,6-9.6c0.7-1,1.2-1.9,1.7-2.7c0.8-1.2,1.3-2.1,1.7-2.7l1.8-2.7h-24.1l-0.5,0.8c-0.1,0.2-0.3,0.5-0.5,0.8
		c-0.5,0.8-1.2,1.9-2,3.2c-1.3,2-2.6,4.3-3.9,6.6c-1.4,2.5-2.9,5.1-4.5,7.8c-1.1,2-2.2,3.9-3.3,5.7c-0.4,0.7-0.8,1.3-1.2,2
		c-0.5,0.9-1,1.7-1.5,2.5c-0.9,1.5-1.7,2.8-2.4,4c-0.9,1.4-1.5,2.4-2,3.2l-0.5,0.8l-0.2,0.4c-0.1,0.3-0.3,0.7-0.7,1.3
		c-0.3-0.6-0.5-1.1-0.7-1.3l-0.2-0.4c-0.1-0.2-0.3-0.5-0.5-0.8c-0.5-0.8-1.2-1.8-2-3.2c-0.6-1-1.3-2-1.9-3.1s-1.3-2.2-2-3.3
		c-1.5-2.5-3.1-5.1-4.8-7.8c-1.7-2.8-3.3-5.4-4.8-7.8c-1.4-2.3-2.7-4.4-4-6.5c-0.9-1.4-1.5-2.4-2-3.2l-1-1.6h-24.1l34.9,54.5
		l-36.5,56.9h24.5l0.5-0.9c0.4-0.8,1.3-2.2,2.4-4c0.6-1,1.3-2.1,2-3.3l0.6-1c2.1-3.4,4.2-6.9,6.4-10.7c2.2-3.8,4.3-7.4,6.4-10.8
		l0.5-0.9c1.2-2,2.2-3.6,3-4.9c0.6-1,1.1-1.8,1.5-2.4c0.2-0.2,0.4-0.6,0.9-1.5c0.1,0.3,0.3,0.5,0.4,0.8c0.4,0.7,0.8,1.5,1.3,2.1
		c0.2,0.4,0.5,0.7,0.6,0.9s0.2,0.3,0.2,0.3l22.6,36.3h24.4L1278.9,158.2z"/>
</g>
</svg>
