<?xml version="1.0" encoding="utf-8"?>
<!-- Generator: Adobe Illustrator 26.0.2, SVG Export Plug-In . SVG Version: 6.00 Build 0)  -->
<svg version="1.1" id="Layer_1" xmlns="http://www.w3.org/2000/svg" xmlns:xlink="http://www.w3.org/1999/xlink" x="0px" y="0px"
	 viewBox="0 0 1019 531.9" style="enable-background:new 0 0 1019 531.9;" xml:space="preserve">
<style type="text/css">
	.st0{fill:none;stroke:#F5C09A;stroke-width:6;stroke-linecap:round;stroke-linejoin:round;stroke-miterlimit:10;}
	.st1{fill:#F5C09A;stroke:#F5C09A;stroke-width:3.4172;stroke-miterlimit:10;}
</style>
<g>
	<circle class="st0" cx="509.5" cy="183.1" r="151.2"/>
	<line class="st0" x1="509.5" y1="226.9" x2="509.5" y2="334.3"/>
	<line class="st0" x1="509.5" y1="32" x2="509.5" y2="63.8"/>
	<g>
		<polyline class="st0" points="509.5,226.9 406.5,145.4 509.5,63.8 612.5,145.4 566.5,181.8 		"/>
		<polyline class="st0" points="596.7,234 612.5,221.5 612.5,145.4 		"/>
		<polyline class="st0" points="406.5,145.4 406.5,221.5 509.5,303.1 556,266.3 		"/>
	</g>
	<g>
		<polyline class="st0" points="424.5,235.8 407,266.3 463,266.3 		"/>
		<polyline class="st0" points="509.5,266.3 612,266.3 509.5,88.7 455.9,181.5 		"/>
	</g>
</g>
<g>
	<path class="st1" d="M115.8,499.7c-0.5-1.1-1.2-2.7-2.1-4.8c-0.9-2.1-1.9-4.5-3.1-7.2c-1.1-2.7-2.4-5.7-3.7-8.9
		c-1.3-3.2-2.7-6.6-4.1-10.1H64.7l-12.8,31H35.8l48.1-113.1c0.6,1.4,1.7,3.9,3.2,7.6s3.4,8.1,5.5,13.2s4.5,10.8,7.2,17
		c2.6,6.2,5.3,12.5,8.1,18.9c2.7,6.4,5.4,12.6,8,18.8c2.6,6.2,5,11.8,7.2,17s4,9.6,5.6,13.2c1.5,3.6,2.6,6.1,3.2,7.5h-16.1V499.7z
		 M70.4,454.9h27c-1.4-3.3-2.7-6.4-3.9-9.5c-1.2-3-2.4-5.8-3.4-8.3s-2-4.7-2.8-6.6s-1.4-3.4-1.8-4.5c-0.1-0.2-0.3-0.9-0.7-2.1
		c-0.4-1.2-0.6-2.3-0.8-3.3c-0.2,1-0.5,2.1-0.9,3.3c-0.4,1.2-0.6,1.9-0.7,2.1L70.4,454.9z"/>
	<path class="st1" d="M173.7,499.7V391.6h16.4v92.6h53.7v15.5H173.7z"/>
	<path class="st1" d="M364.2,491.9c-1.2,0.9-2.9,1.9-5,2.9s-4.6,2-7.5,2.9s-6.1,1.6-9.6,2.2s-7.3,0.9-11.3,0.9
		c-8.4,0-16-1.5-22.7-4.4s-12.4-6.9-17.1-11.9s-8.2-10.7-10.7-17.3c-2.5-6.6-3.7-13.5-3.7-20.9c0-8.1,1.5-15.7,4.4-22.5
		c2.9-6.9,6.9-12.8,12-17.7c5.1-5,11-8.8,17.8-11.6c6.8-2.8,14-4.2,21.7-4.2c2.9,0,5.8,0.2,8.8,0.6s5.8,0.9,8.4,1.6s5,1.5,7,2.5
		c2,0.9,3.6,1.9,4.7,2.9c-0.8,1.2-1.4,2.2-1.9,3c-0.4,0.8-0.9,1.6-1.4,2.5c-0.5,0.8-1,1.8-1.6,2.9s-1.4,2.5-2.4,4.3
		c-1.3-0.9-2.8-1.6-4.5-2.2s-3.6-1.1-5.4-1.5c-1.9-0.4-3.8-0.7-5.7-0.9c-1.9-0.2-3.7-0.3-5.3-0.3c-5.8,0-11.1,1.1-16,3.2
		s-9.2,5-12.7,8.6c-3.6,3.6-6.4,7.8-8.4,12.6c-2,4.8-3.1,9.7-3.1,14.9c0,5.1,1,9.9,2.9,14.6s4.6,8.8,8.1,12.5
		c3.4,3.7,7.6,6.6,12.4,8.8c4.8,2.2,10.1,3.3,15.9,3.3c3.1,0,6.1-0.3,8.9-0.9c2.9-0.6,5.5-1.3,7.8-2.1c2.3-0.8,4.3-1.6,5.8-2.4
		s2.5-1.4,2.8-1.8L364.2,491.9z"/>
	<path class="st1" d="M407.4,499.7V391.6h16.2v45.9h54.1v-45.9h16.4c0,1.3,0,3.7,0,7.2s0,7.7,0,12.6s0,10.3,0,16.2
		c0,5.9,0,11.9-0.1,18s-0.1,12.1-0.1,18s0,11.3,0,16.2c0,4.9,0,9.1,0,12.6s0,5.9,0,7.2h-16.2V453h-54.1v46.7H407.4z"/>
	<path class="st1" d="M549,499.7V391.6h71v14.8h-54.6V438H614v15h-48.6v31.6H622v15.1H549z"/>
	<path class="st1" d="M669.3,386.8c0.9,1.4,2.8,4.1,5.6,8s6.1,8.5,9.8,13.6c3.7,5.2,7.7,10.7,11.8,16.5c4.2,5.8,8.1,11.3,11.8,16.4
		s6.9,9.6,9.6,13.3c2.7,3.8,4.5,6.3,5.4,7.5c0.3-0.5,1.2-1.8,2.8-4s3.6-4.9,5.9-8.2c2.3-3.3,5-7,8-11.1s6-8.3,9.2-12.7
		c3.1-4.3,6.2-8.6,9.2-12.9s5.8-8.2,8.4-11.7c2.6-3.5,4.8-6.6,6.6-9.2s3.2-4.4,4-5.4v112.8h-17.3v-60.5c0-0.8,0.1-1.6,0.2-2.5
		c0.1-0.9,0.2-1.5,0.2-1.9c-0.9,1.2-2.3,3.2-4.2,6s-4.2,6.1-6.7,9.7s-5.2,7.5-8,11.5s-5.4,7.8-7.9,11.4s-4.7,6.7-6.6,9.5
		c-1.9,2.7-3.2,4.6-3.9,5.7c-0.7-0.9-2.1-2.8-4.1-5.6c-2-2.8-4.4-6.1-7.2-9.9c-2.7-3.8-5.6-7.8-8.6-12.1c-3-4.3-5.8-8.2-8.4-11.9
		c-2.6-3.7-4.8-6.8-6.7-9.5c-1.9-2.6-3-4.2-3.3-4.8c0,0.4,0.1,1,0.2,1.9c0.1,0.9,0.2,1.7,0.2,2.5v60.5h-16.2V386.8H669.3z"/>
	<path class="st1" d="M832.4,391.6h16.2v108.1h-16.2V391.6z"/>
	<path class="st1" d="M926.6,444.4l-33.8-52.8h20c0.5,0.8,1.3,2.1,2.5,4s2.5,4,4,6.5c1.5,2.4,3.1,5,4.8,7.8c1.7,2.7,3.3,5.3,4.8,7.8
		c1.5,2.4,2.8,4.6,4,6.5c1.1,1.9,2,3.2,2.5,4c0.1,0.2,0.4,0.9,1,2s1,2.2,1.3,3.1c0.3-0.9,0.7-1.9,1.3-3.1c0.6-1.1,0.9-1.8,1-2
		c0.5-0.8,1.3-2.1,2.5-4c1.1-1.9,2.4-4,3.9-6.5c1.4-2.4,3-5,4.5-7.8c1.6-2.7,3.1-5.3,4.5-7.8c1.4-2.4,2.7-4.6,3.9-6.5
		c1.1-1.9,2-3.2,2.5-4h20c-0.6,0.9-1.7,2.7-3.4,5.4c-1.7,2.7-3.7,5.9-6,9.6s-4.8,7.6-7.4,11.8c-2.6,4.2-5,8.1-7.4,11.8
		c-2.3,3.7-4.4,6.9-6.1,9.6c-1.7,2.7-2.9,4.5-3.4,5.4l35.2,54.4H963l-22.1-35.5c-0.2-0.3-0.5-0.7-0.9-1.3c-0.4-0.6-0.8-1.3-1.2-2
		s-0.8-1.5-1.2-2.2s-0.7-1.2-0.9-1.6c-0.3,0.9-0.7,1.8-1.2,2.8s-0.8,1.5-0.9,1.6c-0.8,1.3-2.3,3.8-4.5,7.4s-4.6,7.5-7,11.7
		s-4.8,8.1-7,11.7s-3.8,6.1-4.5,7.4h-20.3L926.6,444.4z"/>
</g>
</svg>
